<?xml version="1.0" standalone="no"?>
<!DOCTYPE svg PUBLIC "-//W3C//DTD SVG 20010904//EN"
 "http://www.w3.org/TR/2001/REC-SVG-20010904/DTD/svg10.dtd">
<svg version="1.0" xmlns="http://www.w3.org/2000/svg"
 width="2004.000000pt" height="2004.000000pt" viewBox="0 0 2004.000000 2004.000000"
 preserveAspectRatio="xMidYMid meet">
<metadata>
Created by potrace 1.14, written by Peter Selinger 2001-2017
</metadata>
<g transform="translate(0.000000,2004.000000) scale(0.100000,-0.100000)"
fill="#000000" stroke="none">
<path d="M12210 19928 c-23 -46 -44 -85 -45 -86 -2 -2 -66 28 -143 67 l-139
70 -123 -181 c-68 -100 -177 -261 -243 -357 -65 -97 -160 -237 -211 -312 l-91
-137 -165 -95 c-91 -52 -253 -145 -360 -207 -107 -62 -213 -122 -235 -135 -22
-12 -218 -124 -435 -250 -217 -125 -405 -232 -417 -238 -13 -6 -23 -13 -23
-16 0 -4 105 -60 233 -125 127 -65 322 -165 432 -221 110 -56 340 -173 510
-260 171 -87 391 -199 490 -250 99 -51 333 -170 520 -265 187 -95 396 -202
464 -237 68 -35 125 -62 127 -61 1 2 -6 91 -17 198 -10 107 -21 220 -24 250
-3 30 -8 71 -10 90 -2 19 -7 64 -10 100 -3 36 -8 85 -10 110 -3 25 -7 70 -10
100 -3 30 -8 73 -10 95 -2 22 -7 72 -10 110 -3 39 -8 86 -10 105 -3 19 -7 60
-10 90 -3 30 -16 168 -30 305 -14 138 -25 260 -25 271 0 20 12 16 138 -46 120
-59 139 -72 154 -103 9 -19 32 -46 50 -59 84 -62 546 -328 580 -333 41 -7 100
14 134 46 l22 21 144 -26 c132 -24 899 -160 1168 -207 216 -38 1015 -178 1045
-183 42 -8 58 -11 260 -46 99 -17 279 -49 400 -71 121 -21 324 -57 450 -79
127 -22 241 -42 255 -45 14 -3 39 -7 55 -10 17 -3 147 -26 290 -51 143 -25
271 -47 285 -49 14 -3 102 -18 195 -35 227 -40 551 -97 650 -115 44 -8 150
-26 235 -40 146 -25 157 -28 183 -57 15 -18 26 -37 24 -43 -4 -9 -459 -635
-612 -840 -28 -38 -150 -205 -270 -370 -120 -165 -278 -381 -350 -480 -72 -99
-390 -533 -705 -965 -315 -432 -720 -986 -899 -1231 -257 -352 -329 -445 -341
-438 -8 5 -37 29 -65 55 -59 54 -102 75 -136 67 -37 -10 -136 -91 -149 -124
-11 -25 -6 -51 41 -216 l53 -187 -42 -78 c-43 -79 -50 -114 -32 -149 6 -10 71
-62 145 -114 74 -52 136 -99 139 -104 3 -4 -52 -25 -122 -46 -70 -20 -154 -45
-187 -55 -33 -10 -98 -30 -145 -43 -279 -83 -233 -58 -445 -243 -104 -91 -206
-180 -225 -198 -19 -17 -69 -60 -110 -96 -41 -35 -83 -72 -92 -81 -10 -10 -33
-30 -53 -44 l-35 -27 0 -269 0 -269 1750 0 1750 0 0 270 c0 216 -3 271 -14
277 -7 4 -46 37 -86 73 -41 36 -99 87 -129 114 -31 27 -72 63 -91 80 -19 17
-69 60 -110 96 -41 36 -77 67 -80 70 -29 29 -171 150 -190 162 -23 15 -823
258 -848 258 -8 0 -10 14 -6 43 8 64 26 189 30 212 9 42 7 84 -5 113 -12 29
-8 36 336 507 191 262 373 511 404 553 30 43 165 228 300 412 135 184 515 704
844 1155 329 451 709 971 843 1155 135 184 303 415 374 513 l130 177 41 0 c78
0 111 26 302 245 99 113 188 223 197 243 39 83 10 169 -77 226 -29 20 -56 36
-59 36 -4 0 -23 10 -44 23 -20 13 -62 37 -92 54 -30 17 -156 88 -279 158 -188
108 -230 128 -265 128 -65 0 -112 -20 -149 -64 -32 -40 -33 -40 -77 -30 -25 5
-63 12 -85 16 -74 11 -560 95 -605 105 -25 5 -61 12 -80 14 -19 3 -44 7 -55
10 -11 2 -63 11 -115 20 -52 9 -106 18 -120 21 -112 20 -405 72 -540 95 -189
32 -381 66 -660 115 -184 33 -439 78 -505 90 -16 3 -70 12 -120 20 -49 9 -124
22 -165 30 -41 8 -181 32 -310 54 -129 23 -246 43 -260 46 -14 3 -38 7 -55 10
-16 3 -120 21 -230 40 -110 20 -211 37 -225 40 -91 16 -1017 178 -1065 186
-33 6 -71 13 -85 15 -57 10 -137 25 -165 30 -16 3 -75 13 -129 23 l-100 16
-12 48 c-16 65 -39 96 -82 114 -66 28 -100 15 -382 -141 l-265 -147 -155 75
c-85 42 -154 79 -153 83 3 14 283 767 293 788 4 11 17 45 28 75 11 30 23 62
26 71 6 14 -20 31 -134 88 l-140 72 46 90 c26 49 45 91 43 93 -10 9 -130 66
-138 66 -5 0 -28 -37 -51 -82z m1205 -1507 c66 -11 138 -23 160 -26 22 -4 47
-8 55 -10 8 -2 224 -41 480 -85 256 -45 512 -90 570 -100 58 -10 159 -28 225
-40 66 -11 246 -43 400 -70 841 -148 1194 -210 1225 -215 19 -3 159 -28 310
-55 151 -27 340 -60 420 -74 80 -14 249 -44 375 -66 127 -22 268 -47 315 -55
47 -8 94 -17 105 -19 11 -2 40 -7 65 -11 25 -4 54 -9 65 -11 32 -6 127 -23
165 -29 110 -18 594 -106 597 -108 1 -2 -17 -60 -40 -130 l-42 -127 -45 5
c-37 4 -165 25 -365 61 -16 3 -183 32 -370 65 -187 33 -365 65 -395 70 -30 6
-68 12 -85 15 -16 3 -208 37 -425 75 -217 38 -408 71 -425 74 -16 3 -41 7 -55
10 -14 3 -153 27 -310 55 -157 28 -296 52 -310 55 -14 2 -194 34 -400 70 -206
36 -397 70 -425 75 -27 5 -63 12 -80 14 -25 4 -289 51 -830 146 -60 11 -188
33 -283 50 -95 16 -210 36 -255 44 -45 9 -174 31 -287 51 -113 20 -213 38
-222 41 -16 5 -18 21 -18 145 0 77 3 138 8 136 4 -3 61 -14 127 -26z m5818
-1674 c31 -17 57 -35 57 -39 0 -3 -10 -19 -23 -35 -21 -25 -174 -234 -222
-303 -11 -16 -54 -75 -96 -132 -42 -57 -161 -220 -266 -363 -104 -143 -355
-487 -558 -765 -203 -278 -394 -539 -425 -582 -96 -133 -1101 -1509 -1170
-1603 -37 -49 -154 -209 -260 -355 -106 -146 -194 -267 -196 -269 -4 -5 -75
53 -146 118 l-51 47 73 100 c40 54 92 124 114 155 23 31 75 103 117 160 41 57
162 223 269 369 106 146 216 297 245 335 28 39 117 160 197 270 80 110 203
279 274 376 71 97 230 316 354 485 123 170 228 314 233 319 13 17 133 182 617
845 255 349 517 708 582 797 l119 163 52 -30 c29 -17 78 -45 110 -63z"/>
<path d="M4623 18948 c-140 -16 -295 -77 -430 -170 -95 -65 -268 -235 -349
-343 -298 -397 -541 -969 -733 -1729 -22 -87 -42 -160 -44 -163 -3 -2 -92 21
-198 51 -317 89 -592 150 -860 190 -291 43 -383 51 -629 51 -226 0 -306 -6
-468 -35 -277 -50 -488 -152 -647 -314 -161 -163 -234 -340 -240 -581 -7 -236
50 -456 189 -734 77 -154 113 -216 214 -366 115 -170 301 -407 432 -550 25
-27 72 -79 104 -115 33 -36 147 -151 254 -257 l194 -191 -219 -219 c-214 -212
-309 -315 -429 -458 -32 -38 -61 -72 -64 -75 -24 -20 -208 -268 -284 -383
-217 -328 -352 -639 -384 -887 -13 -102 -6 -310 12 -380 97 -360 357 -590 780
-690 206 -49 544 -70 786 -49 131 11 219 20 255 25 399 56 723 126 1093 236
57 16 106 28 109 25 3 -3 29 -100 58 -214 195 -768 467 -1379 777 -1748 311
-371 666 -514 1043 -419 85 21 250 104 333 166 238 179 424 424 617 813 178
360 334 805 451 1288 16 64 33 117 39 117 5 0 33 -7 60 -16 48 -15 324 -91
355 -99 8 -2 76 -17 150 -34 188 -44 207 -48 365 -75 122 -22 201 -32 455 -61
106 -13 465 -12 580 0 150 16 177 21 291 50 427 107 689 352 764 711 17 82 22
248 10 325 -3 24 -9 58 -11 74 -9 62 -46 192 -81 285 -177 474 -567 993 -1212
1613 l-81 78 123 118 c393 381 683 718 893 1042 77 118 78 119 137 226 255
465 307 881 150 1198 -156 316 -496 505 -998 553 -93 9 -426 9 -545 0 -116
-10 -238 -25 -425 -53 -195 -30 -555 -113 -819 -189 -87 -25 -161 -46 -165
-46 -4 0 -17 44 -30 98 -68 290 -192 690 -296 953 -280 706 -624 1147 -1017
1303 -128 50 -279 70 -415 54z m196 -419 c341 -78 699 -603 964 -1414 75 -228
169 -574 189 -690 3 -17 -21 -29 -187 -91 -317 -119 -678 -271 -967 -408 l-96
-46 -124 59 c-306 146 -862 376 -1076 446 -29 10 -52 23 -52 29 0 7 15 75 34
152 197 799 470 1413 773 1734 183 194 364 271 542 229z m-3224 -2114 c119 -8
280 -27 430 -51 182 -29 535 -110 758 -175 78 -23 152 -44 165 -47 13 -2 26
-11 29 -18 3 -7 -4 -66 -16 -131 -37 -214 -87 -576 -107 -778 -4 -38 -8 -77
-9 -85 -2 -8 -6 -58 -11 -110 -4 -52 -9 -98 -10 -102 -1 -5 -2 -35 -3 -67 l-1
-60 -167 -117 c-149 -104 -474 -342 -528 -386 -11 -9 -105 -85 -208 -168
l-188 -152 -48 44 c-202 181 -562 567 -727 779 -80 103 -224 304 -224 313 0 3
-14 25 -30 50 -43 62 -134 241 -171 333 -74 183 -104 369 -80 495 37 203 214
344 506 404 58 12 77 15 160 24 151 17 292 19 480 5z m6687 1 c323 -22 586
-144 671 -312 89 -175 62 -415 -81 -716 -171 -362 -472 -751 -947 -1221 -167
-166 -213 -205 -223 -191 -4 5 -43 39 -87 74 -44 36 -82 67 -85 70 -3 3 -59
48 -125 101 -204 162 -504 381 -723 529 -43 29 -52 40 -53 68 -1 17 -2 35 -3
40 -1 4 -6 57 -11 117 -5 61 -9 112 -10 115 -1 3 -5 41 -9 85 -5 44 -9 87 -11
95 -1 8 -6 47 -9 85 -4 39 -9 81 -11 95 -2 14 -18 124 -35 244 -17 121 -40
267 -51 325 -10 57 -19 106 -19 107 0 4 127 43 273 84 272 75 549 134 792 169
199 29 216 30 355 37 69 4 126 8 127 9 4 3 182 -3 275 -9z m-4721 -487 c275
-104 671 -271 676 -286 2 -4 -10 -14 -26 -21 -90 -40 -824 -461 -913 -523 -14
-11 -29 -19 -33 -19 -6 0 1 122 10 169 1 9 6 43 9 76 11 95 38 296 56 405 5
30 12 73 15 95 15 108 28 165 36 165 5 0 82 -27 170 -61z m2503 44 c12 -43 69
-418 92 -608 2 -22 6 -56 9 -75 3 -19 7 -62 10 -95 3 -33 8 -72 11 -87 3 -16
3 -28 0 -28 -3 0 -106 60 -229 133 -218 131 -474 277 -652 372 -49 26 -94 51
-98 55 -8 7 331 156 543 238 318 125 306 121 314 95z m-1140 -657 c355 -183
904 -499 1155 -665 51 -33 95 -61 99 -61 4 -1 17 -9 29 -19 20 -17 23 -31 28
-137 3 -66 8 -157 11 -204 6 -111 7 -928 0 -1050 -3 -52 -8 -153 -11 -225 -4
-71 -8 -131 -8 -131 -55 -41 -682 -424 -694 -424 -2 0 -17 -8 -31 -19 -24 -16
-174 -101 -357 -201 -33 -18 -141 -75 -241 -126 l-181 -94 -99 51 c-144 74
-342 178 -394 207 -253 140 -636 365 -810 477 -36 23 -95 61 -132 84 -49 31
-68 50 -72 69 -20 100 -29 1102 -13 1452 5 102 9 192 9 200 -2 49 11 60 196
178 309 196 682 413 977 567 72 38 175 93 230 122 55 29 102 53 104 53 2 0 95
-47 205 -104z m2076 -1307 c85 -65 210 -163 278 -218 l122 -99 -102 -85 c-57
-46 -134 -108 -173 -138 -38 -29 -72 -56 -75 -59 -10 -12 -360 -271 -373 -275
-9 -4 -12 113 -12 558 l0 563 90 -64 c50 -36 160 -118 245 -183z m-4217 199
c-6 -51 -8 -759 -3 -940 2 -71 1 -131 -3 -134 -11 -11 -727 537 -727 556 0 4
50 47 111 96 61 49 129 104 151 122 23 18 120 92 217 164 97 72 190 142 206
154 45 34 54 31 48 -18z m-939 -889 c261 -213 598 -467 856 -645 l115 -80 6
-75 c4 -41 9 -113 13 -160 4 -46 9 -97 11 -114 2 -16 7 -57 10 -90 8 -84 14
-139 25 -220 5 -38 12 -88 15 -110 6 -46 22 -164 35 -245 4 -30 18 -115 31
-188 13 -79 18 -136 13 -141 -5 -4 -92 -31 -194 -59 -494 -137 -774 -191
-1185 -227 -81 -8 -367 -8 -435 0 -427 45 -653 180 -710 424 -17 71 -8 223 19
326 81 317 315 694 704 1138 103 117 540 557 553 557 3 0 56 -41 118 -91z
m5937 34 c78 -72 313 -307 394 -394 468 -502 762 -982 818 -1333 50 -307 -71
-496 -383 -599 -41 -14 -88 -28 -105 -30 -16 -3 -57 -10 -90 -15 -174 -31
-472 -32 -734 -1 -51 6 -101 12 -111 14 -9 2 -41 6 -71 10 -90 11 -435 81
-584 119 -153 38 -445 122 -452 130 -3 2 2 40 11 83 17 86 47 275 71 453 24
177 33 252 50 420 3 30 8 71 10 90 2 19 7 71 10 115 9 125 16 180 23 186 4 3
75 52 157 109 273 189 711 522 870 664 22 19 43 35 47 36 4 0 35 -26 69 -57z
m-4379 -1134 c173 -107 561 -329 713 -409 142 -75 133 -69 115 -80 -27 -17
-432 -187 -590 -248 -230 -88 -250 -95 -255 -91 -19 20 -139 909 -121 909 3 0
65 -37 138 -81z m2784 54 c-3 -16 -8 -55 -11 -88 -7 -77 -21 -190 -51 -410 -4
-31 -46 -288 -59 -365 -3 -20 -26 -17 -120 18 -187 70 -563 223 -684 280 l-64
30 72 38 c61 33 410 228 533 298 70 40 253 151 312 188 33 21 63 38 68 38 5 0
7 -12 4 -27z m-1312 -843 c100 -47 285 -129 471 -209 69 -30 202 -84 275 -111
47 -18 99 -38 115 -45 17 -8 76 -30 133 -50 56 -21 104 -40 106 -44 4 -8 -71
-310 -122 -486 -124 -426 -286 -817 -449 -1087 -262 -431 -540 -619 -801 -539
-410 124 -811 828 -1083 1900 -27 107 -49 199 -49 206 0 7 53 31 118 55 133
48 536 209 627 250 33 15 80 35 104 46 25 10 124 56 220 100 97 45 184 80 194
77 9 -2 73 -31 141 -63z"/>
<path d="M4586 14254 c-249 -60 -429 -277 -443 -534 -9 -162 44 -305 159 -426
257 -270 693 -234 902 74 155 229 126 530 -69 727 -145 146 -353 206 -549 159z"/>
<path d="M9809 9962 l-24 -20 0 -4937 0 -4937 28 -24 28 -24 4964 2 4964 3 23
23 c22 21 23 32 26 169 4 188 1 206 -42 227 -31 15 -233 16 -2185 16 l-2151 0
0 200 0 200 -130 0 -130 0 0 -200 0 -200 -2449 0 -2450 0 -28 24 -28 24 -5
4711 -5 4710 -23 23 c-21 22 -31 23 -190 26 -155 3 -170 2 -193 -16z"/>
<path d="M15239 7598 c-238 -17 -443 -141 -604 -363 -40 -56 -145 -230 -145
-242 0 -2 -14 -35 -31 -71 -120 -256 -235 -645 -414 -1402 -261 -1097 -442
-1675 -720 -2295 -77 -173 -259 -517 -339 -645 -233 -369 -414 -600 -653 -837
-326 -322 -709 -564 -1100 -692 -162 -54 -274 -79 -513 -115 -33 -5 -238 -18
-307 -20 l-33 -1 0 -174 0 -173 133 6 c597 29 1116 201 1591 529 616 425 1138
1101 1548 2002 256 564 448 1164 678 2120 205 852 294 1175 391 1427 177 455
388 647 654 597 144 -27 273 -147 375 -349 116 -231 220 -593 390 -1360 218
-983 371 -1483 645 -2100 80 -180 255 -536 319 -648 20 -35 36 -66 36 -68 0
-10 221 -373 293 -479 241 -360 424 -585 691 -850 522 -518 1042 -784 1607
-821 l89 -6 0 174 0 173 -52 2 c-352 14 -736 172 -1098 451 -47 36 -92 73
-101 81 -9 9 -43 39 -75 67 -297 260 -650 704 -926 1164 -160 265 -346 627
-468 905 -29 66 -60 138 -70 160 -96 214 -251 664 -330 960 -56 207 -134 524
-190 770 -124 553 -193 841 -235 993 -81 294 -171 523 -269 686 -191 319 -447
468 -767 444z"/>
<path d="M15180 6670 l0 -230 130 0 130 0 0 230 0 230 -130 0 -130 0 0 -230z"/>
<path d="M15169 5848 c0 -18 -2 -122 -4 -230 l-4 -198 129 0 130 0 0 230 0
230 -125 0 -125 0 -1 -32z"/>
<path d="M15180 4540 l0 -240 130 0 130 0 0 240 0 240 -130 0 -130 0 0 -240z"/>
<path d="M15169 3803 c0 -21 -2 -125 -4 -230 l-4 -193 129 0 130 0 0 230 0
230 -125 0 -125 0 -1 -37z"/>
<path d="M15180 2630 l0 -230 130 0 130 0 0 230 0 230 -130 0 -130 0 0 -230z"/>
<path d="M15169 1813 c0 -27 -2 -130 -4 -230 l-4 -183 129 0 130 0 0 230 0
230 -125 0 -125 0 -1 -47z"/>
</g>
</svg>
