<?xml version="1.0" standalone="no"?>
<!DOCTYPE svg PUBLIC "-//W3C//DTD SVG 20010904//EN"
 "http://www.w3.org/TR/2001/REC-SVG-20010904/DTD/svg10.dtd">
<svg version="1.0" xmlns="http://www.w3.org/2000/svg"
 width="1998.000000pt" height="1998.000000pt" viewBox="0 0 1998.000000 1998.000000"
 preserveAspectRatio="xMidYMid meet">
<metadata>
Created by potrace 1.14, written by Peter Selinger 2001-2017
</metadata>
<g transform="translate(0.000000,1998.000000) scale(0.100000,-0.100000)"
fill="#000000" stroke="none">
<path d="M11790 19908 c-67 -138 -437 -698 -592 -895 -56 -72 -123 -116 -543
-362 -143 -84 -282 -166 -308 -182 -27 -16 -50 -29 -53 -29 -2 0 -23 -12 -47
-27 -23 -14 -67 -40 -97 -56 -30 -16 -62 -35 -70 -41 -8 -6 -24 -16 -35 -22
-94 -50 -427 -251 -455 -275 l-35 -29 23 -20 c40 -34 197 -117 867 -462 304
-156 1537 -772 1693 -846 73 -34 139 -62 147 -62 8 0 17 15 22 38 12 64 7 342
-12 553 -2 24 -6 78 -10 119 -3 41 -8 89 -10 105 -2 17 -6 70 -10 120 -4 49
-8 92 -10 95 -2 3 -6 40 -10 82 -3 42 -7 85 -9 95 -2 10 -7 56 -11 103 -4 47
-8 99 -10 115 -2 17 -7 75 -10 129 -3 55 -7 102 -8 105 -1 3 2 21 6 40 7 32 9
33 42 28 21 -4 74 -33 131 -74 458 -327 599 -396 844 -408 58 -3 116 -10 190
-20 14 -2 45 -6 70 -10 25 -3 56 -8 70 -10 14 -3 43 -7 65 -10 35 -4 267 -39
335 -50 14 -2 41 -7 60 -10 19 -3 46 -7 60 -10 22 -4 75 -12 135 -20 11 -2 79
-13 150 -25 72 -11 141 -23 155 -25 14 -2 111 -18 215 -36 105 -17 202 -33
218 -35 65 -10 239 -38 307 -51 19 -3 44 -7 55 -9 11 -1 31 -5 44 -8 12 -3 43
-8 68 -11 24 -2 48 -7 51 -9 4 -2 30 -7 57 -10 28 -4 57 -9 65 -11 8 -2 33 -6
55 -10 33 -4 156 -25 240 -39 23 -5 77 -14 120 -21 17 -3 46 -8 65 -11 19 -2
46 -7 60 -10 49 -9 66 -12 165 -29 55 -10 109 -19 120 -20 11 -2 47 -8 80 -14
33 -6 74 -13 90 -16 237 -41 472 -82 605 -107 91 -16 174 -31 185 -33 11 -1
97 -16 190 -33 94 -17 181 -33 195 -36 505 -90 948 -182 967 -199 13 -14 -10
-75 -62 -162 -34 -59 -247 -374 -329 -490 -81 -114 -192 -269 -304 -425 -111
-156 -1067 -1471 -1257 -1730 -379 -518 -710 -963 -740 -997 -5 -6 -21 -26
-35 -44 -160 -210 -295 -356 -350 -379 -27 -11 -40 -11 -79 1 -69 21 -150 18
-183 -6 -51 -38 -53 -51 -53 -325 0 -393 8 -434 101 -516 57 -49 65 -71 36
-97 -27 -25 -134 -70 -257 -110 -231 -75 -338 -132 -495 -263 -57 -48 -255
-219 -260 -224 -3 -3 -43 -39 -90 -80 -47 -42 -100 -88 -118 -104 l-32 -30 2
-274 3 -275 40 -21 40 -21 1635 -1 c899 -1 1660 1 1691 3 l56 5 11 76 c7 42
15 97 20 122 4 25 7 101 7 170 0 116 -2 129 -27 180 -15 30 -55 84 -90 120
-82 85 -275 251 -413 355 -198 150 -300 200 -625 308 -231 77 -300 108 -340
154 -25 29 -30 42 -30 88 0 30 11 87 24 128 57 176 166 348 615 976 135 189
253 353 261 364 12 17 479 661 546 752 40 56 557 761 608 830 112 153 481 647
491 658 6 7 62 80 125 162 63 83 120 157 127 165 6 8 69 87 140 175 70 88 130
162 133 165 3 3 45 52 95 110 122 143 159 182 393 415 l202 202 0 124 0 125
-172 86 c-95 48 -225 116 -288 153 -177 102 -331 175 -378 179 -27 3 -64 -3
-100 -15 -58 -20 -169 -27 -247 -15 -22 3 -61 8 -87 11 -68 7 -179 23 -283 40
-162 26 -530 87 -550 91 -11 2 -36 6 -55 9 -19 3 -57 9 -85 15 -27 5 -66 12
-85 15 -19 3 -60 10 -90 15 -30 5 -71 12 -90 15 -19 3 -69 12 -110 20 -57 11
-582 102 -810 140 -14 3 -115 20 -225 40 -240 42 -233 40 -450 79 -77 14 -156
27 -175 30 -19 3 -46 8 -60 11 -14 3 -90 16 -170 30 -80 14 -181 32 -225 40
-44 8 -93 17 -110 20 -16 3 -68 12 -115 20 -47 8 -98 17 -115 20 -16 3 -41 8
-55 10 -49 10 -76 15 -135 25 -98 17 -277 50 -325 60 -25 6 -61 13 -80 16 -19
3 -39 7 -45 8 -12 3 -70 14 -105 20 -14 3 -106 21 -205 41 -99 20 -189 39
-200 41 -73 14 -311 76 -360 95 -33 12 -86 39 -119 61 -130 88 -184 84 -418
-33 -205 -103 -284 -132 -360 -133 -58 -1 -71 3 -109 29 -24 17 -54 46 -67 65
-41 61 -30 105 163 659 l99 284 -39 31 c-183 145 -189 156 -162 281 10 41 17
80 17 85 0 6 -45 10 -110 10 l-110 0 0 -25 c0 -54 -39 -95 -90 -95 -32 0 -121
37 -146 61 -13 13 -24 31 -24 41 0 15 -8 18 -42 18 -42 0 -44 -2 -68 -52z
m1780 -1612 c47 -8 103 -17 125 -21 22 -3 65 -10 95 -15 56 -10 68 -12 180
-30 36 -5 76 -12 90 -15 14 -2 68 -11 120 -20 52 -8 109 -18 125 -21 17 -3 39
-7 50 -9 26 -4 94 -15 125 -21 47 -8 385 -65 415 -70 17 -2 41 -7 55 -9 57
-12 82 -16 225 -40 83 -14 229 -39 325 -56 96 -17 263 -46 370 -64 107 -19
364 -64 570 -100 433 -76 593 -104 635 -111 17 -3 118 -21 225 -40 188 -34
241 -44 360 -64 30 -6 66 -12 80 -15 35 -7 68 -13 120 -20 24 -4 47 -8 50 -10
3 -2 23 -6 45 -9 22 -3 63 -11 90 -16 28 -5 61 -11 75 -14 32 -5 408 -74 435
-80 11 -2 49 -10 85 -17 127 -25 170 -58 170 -134 0 -79 -55 -110 -165 -93
-125 18 -445 69 -495 78 -30 6 -68 12 -85 15 -16 3 -111 19 -210 35 -99 17
-191 33 -205 35 -134 22 -746 129 -860 150 -14 3 -54 10 -90 15 -36 6 -75 13
-87 15 -42 9 -177 33 -338 60 -16 3 -52 10 -80 15 -27 5 -63 12 -80 15 -25 4
-411 73 -510 90 -16 3 -68 13 -115 21 -47 9 -96 18 -110 20 -47 8 -135 24
-160 29 -13 3 -63 11 -110 20 -47 8 -96 17 -110 20 -14 3 -38 7 -55 10 -16 3
-41 7 -55 10 -14 3 -41 7 -60 10 -19 3 -42 8 -50 10 -8 2 -31 7 -50 10 -19 3
-69 12 -110 20 -41 8 -86 16 -100 19 -21 3 -89 16 -265 50 -11 2 -40 7 -65 12
-25 4 -47 8 -50 9 -3 1 -25 5 -50 9 -25 5 -52 10 -60 11 -171 35 -282 58 -310
65 -19 5 -46 11 -60 14 -50 9 -176 45 -215 61 -114 46 -165 85 -165 127 0 46
129 61 290 34z m5537 -1591 c28 -32 23 -68 -24 -160 -53 -105 -359 -558 -564
-835 -14 -19 -79 -109 -144 -200 -65 -91 -142 -196 -170 -235 -28 -38 -123
-168 -211 -289 -429 -589 -925 -1267 -957 -1306 -6 -9 -28 -38 -47 -65 -19
-28 -38 -54 -43 -60 -4 -5 -45 -60 -90 -122 -373 -508 -642 -868 -716 -958
-116 -143 -152 -166 -196 -125 -51 48 -16 134 171 415 120 180 138 207 299
435 56 80 115 164 131 187 16 22 112 157 214 298 102 141 198 275 214 298 16
23 53 74 81 112 28 39 130 178 225 310 197 272 712 976 744 1017 12 15 35 46
52 70 17 24 177 239 356 478 349 468 536 711 576 748 30 28 66 23 99 -13z"/>
<path d="M4680 18903 c-14 -2 -58 -8 -99 -14 -420 -62 -811 -477 -1129 -1199
-75 -171 -142 -348 -252 -670 -100 -294 -155 -427 -179 -434 -17 -6 -129 0
-171 9 -14 2 -38 7 -55 10 -16 2 -102 21 -190 40 -88 20 -180 40 -205 45 -25
5 -54 11 -65 13 -11 3 -54 10 -95 17 -41 6 -86 13 -100 16 -14 2 -56 6 -95 10
-38 3 -78 8 -87 9 -134 26 -1056 26 -1097 1 -3 -2 -22 -7 -41 -10 -114 -18
-249 -79 -362 -164 -42 -31 -136 -115 -210 -185 -73 -71 -150 -141 -170 -155
l-38 -27 0 -402 c0 -347 2 -403 15 -403 31 0 90 -82 180 -255 157 -300 274
-483 457 -713 73 -93 258 -310 313 -368 5 -6 66 -70 135 -143 69 -73 157 -167
197 -209 l72 -76 -73 -75 c-141 -146 -227 -236 -252 -264 -14 -15 -59 -65
-101 -110 -305 -331 -558 -684 -783 -1097 -75 -137 -104 -178 -136 -192 l-24
-11 0 -419 0 -418 25 0 c20 0 57 -31 153 -128 138 -138 209 -190 377 -276 136
-69 232 -104 310 -114 135 -16 982 -7 1110 13 17 3 48 7 70 10 75 10 274 47
383 70 12 3 32 7 45 10 27 6 163 34 197 40 14 3 50 10 80 15 30 6 91 13 135
17 100 7 119 -6 159 -104 15 -37 31 -75 35 -83 4 -8 31 -89 60 -180 135 -422
213 -625 341 -885 95 -192 131 -258 143 -263 4 -2 7 -8 7 -13 0 -14 113 -181
189 -278 70 -91 206 -232 268 -277 21 -16 40 -31 43 -34 14 -16 152 -100 201
-122 148 -69 330 -95 475 -68 502 92 872 512 1230 1395 25 61 49 119 54 130
13 30 77 205 122 335 101 292 163 421 210 436 25 8 152 8 198 -1 33 -6 218
-43 250 -50 63 -14 169 -37 190 -41 14 -2 48 -9 75 -14 28 -5 70 -12 95 -15
25 -3 52 -8 60 -10 17 -4 71 -12 140 -19 25 -3 70 -8 100 -11 110 -12 137 -14
275 -21 243 -12 502 -7 625 12 368 57 606 189 793 439 85 113 115 182 124 285
13 142 7 424 -13 533 -37 211 -184 509 -402 816 -87 123 -277 361 -380 476
-15 17 -54 62 -87 100 -33 37 -67 75 -76 84 -8 9 -67 75 -130 146 -63 72 -127
144 -142 160 -16 17 -35 45 -43 63 l-15 33 75 92 c82 100 95 114 267 298 181
193 193 206 320 359 164 198 312 415 419 615 65 120 83 159 131 285 36 91 86
290 95 368 13 129 5 280 -21 377 -93 349 -335 565 -750 671 -174 44 -329 59
-590 59 -174 -1 -354 -9 -430 -20 -16 -3 -52 -7 -80 -10 -27 -3 -90 -12 -140
-20 -49 -7 -108 -16 -130 -20 -39 -5 -215 -41 -520 -105 -195 -40 -286 -48
-318 -27 -34 22 -80 137 -194 477 -161 485 -300 805 -462 1068 -187 302 -431
553 -651 671 -122 65 -318 107 -440 94z m195 -488 c102 -41 169 -87 260 -179
74 -75 180 -215 231 -304 95 -165 134 -234 134 -239 0 -3 18 -42 39 -86 113
-234 209 -494 316 -862 42 -142 46 -275 12 -338 -12 -20 -41 -50 -66 -66 -140
-89 -720 -341 -987 -429 -78 -26 -97 -29 -134 -21 -157 35 -1008 419 -1072
484 -81 81 -62 240 82 666 124 368 263 674 406 890 37 57 73 109 79 115 5 7
26 31 45 55 74 93 211 221 308 287 102 70 217 79 347 27z m-3190 -2069 c17 -3
73 -10 125 -16 52 -6 120 -15 150 -20 30 -5 75 -12 100 -15 168 -24 571 -120
698 -167 65 -24 144 -67 185 -100 31 -26 34 -41 19 -113 -6 -27 -13 -75 -17
-105 -3 -30 -8 -66 -10 -80 -8 -42 -13 -83 -20 -140 -3 -30 -8 -66 -10 -80 -2
-14 -7 -50 -10 -80 -10 -91 -14 -120 -20 -164 -3 -22 -8 -57 -10 -76 -6 -45
-25 -195 -31 -240 -20 -143 -30 -161 -170 -284 -233 -206 -839 -654 -906 -671
-31 -8 -85 36 -248 202 -329 337 -633 698 -757 899 -71 115 -178 336 -207 428
-49 153 -60 263 -41 402 23 174 220 336 480 394 138 31 230 38 455 34 118 -2
229 -6 245 -8z m6730 -30 c174 -20 308 -82 419 -193 102 -102 120 -141 120
-268 1 -127 -7 -175 -50 -302 -103 -305 -320 -645 -648 -1017 -190 -216 -527
-546 -557 -546 -16 0 -387 260 -473 331 -6 5 -92 72 -191 149 -99 76 -218 172
-265 212 -85 74 -99 96 -113 186 -3 15 -10 54 -15 87 -6 33 -13 76 -16 95 -12
90 -19 137 -22 155 -2 11 -7 40 -10 65 -3 25 -7 52 -9 60 -1 8 -6 44 -10 80
-7 66 -12 105 -20 150 -2 14 -7 57 -10 95 -4 39 -10 101 -14 139 -4 38 -7 104
-6 146 2 117 11 126 180 186 63 23 232 67 295 78 14 2 36 7 50 10 14 3 39 8
55 11 111 20 196 35 235 40 25 3 56 8 70 11 14 2 41 6 60 8 19 2 60 7 90 10
91 12 130 15 260 22 69 3 126 7 128 9 6 5 411 -3 467 -9z m-4646 -522 c206
-75 371 -165 371 -203 0 -41 -279 -218 -628 -397 -128 -66 -168 -76 -193 -45
-15 18 -17 37 -13 118 2 54 8 122 13 153 6 30 12 71 15 90 4 28 25 132 40 195
14 61 39 125 55 139 48 44 100 36 340 -50z m2231 73 c41 -33 82 -148 96 -272
3 -33 8 -69 10 -80 9 -47 14 -303 6 -330 -5 -19 -16 -31 -28 -33 -71 -10 -764
405 -764 458 0 27 578 267 650 269 8 0 22 -5 30 -12z m-1215 -521 c11 -7 144
-82 295 -166 151 -84 304 -170 339 -191 34 -22 65 -39 67 -39 9 0 403 -242
519 -319 150 -99 204 -149 206 -188 1 -16 3 -39 5 -53 11 -84 18 -394 18 -785
1 -685 -5 -726 -108 -833 -33 -35 -88 -83 -121 -106 -71 -51 -302 -190 -541
-326 -295 -168 -332 -188 -572 -309 l-162 -83 -143 72 c-150 76 -306 159 -366
193 -20 11 -61 34 -91 50 -30 17 -149 87 -265 156 -115 69 -216 127 -222 129
-7 2 -13 8 -13 13 0 5 -5 9 -11 9 -22 0 -205 131 -262 188 -66 64 -90 109
-106 197 -6 33 -13 71 -16 84 -13 67 -18 253 -18 606 0 483 9 689 35 790 19
79 154 185 463 365 17 10 71 42 120 71 50 29 110 63 135 77 25 13 74 41 110
62 106 61 173 97 410 218 124 63 229 119 235 123 13 13 38 11 60 -5z m2056
-1274 c96 -63 401 -313 426 -349 11 -15 25 -42 32 -60 12 -28 11 -35 -5 -56
-22 -27 -109 -106 -179 -162 -28 -22 -52 -43 -55 -46 -14 -18 -241 -177 -269
-188 -53 -23 -78 -4 -87 66 -17 119 -8 716 12 811 9 45 36 42 125 -16z m-4112
2 c47 -60 66 -184 65 -434 0 -237 -15 -345 -53 -399 -37 -51 -51 -53 -106 -19
-45 28 -283 206 -311 232 -6 6 -50 44 -98 85 -96 82 -111 102 -97 129 23 44
356 319 485 401 61 38 88 39 115 5z m-864 -808 c39 -28 126 -93 193 -146 68
-52 138 -105 155 -118 18 -12 39 -28 47 -35 8 -7 76 -59 150 -117 74 -57 137
-107 140 -110 3 -3 37 -30 75 -60 39 -30 76 -60 83 -68 8 -7 29 -24 48 -38 34
-26 55 -75 69 -164 3 -19 8 -42 10 -50 5 -19 13 -65 20 -116 7 -58 16 -126 21
-154 2 -14 6 -50 9 -80 3 -30 8 -66 10 -80 3 -14 7 -61 10 -105 4 -44 8 -91
10 -104 14 -85 22 -400 12 -443 -8 -31 -59 -62 -175 -107 -182 -71 -561 -152
-827 -176 -38 -3 -88 -8 -110 -10 -159 -16 -436 -22 -631 -15 -158 6 -314 37
-413 83 -97 44 -203 145 -247 235 -24 46 -27 64 -26 150 2 216 89 499 217 702
145 231 296 435 491 665 134 158 140 164 344 374 l175 179 35 -21 c19 -12 67
-44 105 -71z m6131 -191 c162 -174 216 -233 250 -275 16 -19 31 -37 34 -40 4
-3 40 -46 82 -97 321 -388 534 -770 582 -1045 20 -111 15 -263 -11 -318 -47
-103 -191 -221 -321 -264 -153 -50 -258 -60 -687 -60 -366 -1 -382 0 -605 49
-58 13 -159 36 -240 55 -52 12 -102 23 -110 25 -100 21 -280 74 -335 99 -100
46 -109 63 -110 201 0 100 9 240 19 290 2 11 7 52 10 90 4 39 13 113 21 165 7
52 16 116 19 143 10 83 18 142 21 158 5 23 28 211 28 227 0 7 43 52 96 100 53
48 101 92 107 98 6 5 31 26 54 45 23 18 47 39 54 45 12 12 295 236 344 273 17
13 120 90 229 173 l198 149 75 -79 c41 -43 129 -136 196 -207z m-4574 -944
c190 -81 583 -304 666 -378 53 -48 22 -81 -148 -156 -73 -33 -462 -179 -464
-175 -67 102 -86 152 -110 288 -27 149 -39 351 -24 408 10 37 20 39 80 13z
m2686 -13 c10 -36 8 -195 -2 -298 -17 -168 -42 -283 -78 -354 -19 -38 -21 -38
-66 -34 -52 5 -299 97 -430 160 -147 70 -181 118 -124 177 83 87 604 377 684
381 4 0 11 -15 16 -32z m-1305 -689 c40 -17 96 -41 125 -55 29 -13 55 -24 57
-24 3 0 37 -15 77 -34 40 -18 138 -62 218 -96 80 -34 161 -70 180 -79 19 -9
37 -16 40 -16 7 0 203 -82 280 -117 36 -16 84 -47 107 -70 l42 -41 -4 -71 c-6
-106 -8 -115 -88 -371 -188 -608 -464 -1146 -718 -1405 -134 -136 -239 -190
-380 -196 -86 -3 -154 12 -238 52 -68 33 -237 200 -324 321 -104 145 -257 433
-347 648 -22 55 -45 109 -50 120 -49 110 -221 633 -254 776 -16 68 -7 96 50
152 34 34 202 124 364 195 122 53 221 97 278 123 35 16 65 29 67 29 3 0 28 11
57 25 101 47 373 164 381 165 5 0 41 -14 80 -31z"/>
<path d="M4604 14202 c-213 -42 -385 -218 -434 -442 -13 -64 -6 -226 14 -285
63 -186 200 -319 376 -364 90 -23 253 -21 344 4 179 48 333 223 390 442 45
174 -14 355 -159 491 -146 136 -341 193 -531 154z"/>
<path d="M9809 9928 c0 -18 -2 -40 -4 -48 -4 -24 -16 -196 -21 -300 -14 -338
-24 -2732 -28 -6684 -3 -2391 -5 -2829 -17 -2837 -56 -34 -118 -34 4989 -34
2737 0 4990 4 5006 8 l29 8 -5 158 c-4 158 -5 159 -41 236 -20 42 -37 86 -37
96 0 11 18 54 40 95 36 67 40 83 40 145 0 49 -6 81 -19 108 -21 39 -88 91
-119 91 -32 0 -235 61 -352 105 -508 195 -950 556 -1378 1130 -228 305 -442
651 -624 1010 -60 117 -206 435 -212 460 -2 6 -8 21 -13 35 -96 228 -194 505
-300 845 -35 116 -66 217 -68 226 -2 9 -12 47 -23 85 -22 73 -112 408 -117
434 -2 8 -11 44 -20 80 -9 36 -18 70 -20 75 -1 6 -5 21 -8 35 -4 14 -22 91
-42 173 -19 81 -51 213 -71 295 -20 81 -38 154 -40 162 -1 8 -17 67 -34 130
-225 841 -429 1186 -769 1300 -268 90 -574 41 -776 -124 -268 -219 -406 -524
-659 -1456 -31 -113 -65 -239 -77 -280 -12 -41 -23 -83 -24 -92 -4 -20 -91
-352 -111 -423 -20 -73 -116 -427 -119 -445 -34 -153 -250 -837 -343 -1085
-123 -327 -299 -698 -429 -902 -18 -29 -33 -55 -33 -58 0 -3 -9 -18 -19 -33
-10 -15 -59 -87 -108 -161 -134 -203 -136 -206 -142 -211 -3 -3 -19 -23 -34
-46 -15 -22 -35 -49 -45 -60 -9 -10 -30 -37 -46 -59 -17 -22 -32 -42 -35 -45
-4 -3 -26 -30 -51 -60 -89 -110 -226 -250 -340 -350 -41 -36 -77 -68 -80 -71
-23 -25 -206 -153 -320 -223 -212 -130 -500 -244 -810 -321 -45 -11 -220 -46
-273 -55 -34 -5 -71 -12 -82 -14 -11 -2 -63 -9 -115 -15 -52 -7 -107 -14 -123
-17 l-27 -6 7 -121 c9 -177 8 -296 -3 -307 -13 -13 -83 35 -86 58 -12 124 -16
976 -22 3919 -7 3422 -17 5135 -30 5250 -3 21 -8 65 -11 98 -3 33 -8 69 -10
80 -2 11 -4 26 -4 33 -1 9 -42 12 -171 12 l-170 0 -1 -32z m5567 -2742 c183
-84 279 -234 412 -646 62 -192 185 -640 217 -790 2 -8 27 -107 55 -220 28
-113 53 -212 55 -220 21 -83 105 -394 137 -505 22 -77 41 -147 43 -155 3 -16
19 -70 95 -325 45 -148 137 -403 215 -595 147 -360 428 -944 558 -1160 34 -58
69 -116 77 -129 83 -139 363 -536 427 -606 10 -11 43 -49 73 -85 160 -190 428
-452 615 -603 108 -87 168 -131 275 -203 188 -125 293 -179 490 -252 78 -29
184 -60 250 -72 153 -29 215 -55 204 -85 -3 -7 -13 -17 -22 -21 -61 -26 -3744
-25 -3957 1 -16 2 -53 6 -80 10 -76 9 -77 11 -81 116 -5 125 -26 193 -74 241
-37 37 -46 40 -121 41 -46 1 -87 -23 -99 -56 -7 -18 -14 -77 -16 -132 -3 -55
-9 -116 -14 -135 -6 -19 -10 -47 -10 -62 l0 -28 -247 -1 c-137 0 -574 -2 -973
-4 -1060 -6 -2535 -6 -2765 -1 -363 9 -492 26 -478 61 6 18 40 24 143 27 47 1
103 8 125 15 22 8 101 30 175 49 128 33 333 99 355 114 6 3 33 15 60 25 252
92 644 333 864 530 453 406 740 778 1082 1400 40 73 199 392 199 399 0 3 15
38 34 78 43 93 94 215 141 343 41 108 134 381 140 405 1 8 13 44 25 80 12 36
23 72 25 80 2 8 19 67 39 130 71 236 148 516 331 1205 340 1280 455 1570 677
1700 133 78 219 89 324 41z"/>
<path d="M15193 6856 l-28 -24 -3 -185 -3 -184 34 -17 c37 -17 142 -22 165 -7
23 14 29 72 28 239 -2 196 -4 202 -102 202 -52 0 -68 -4 -91 -24z"/>
<path d="M15184 5853 c-12 -2 -30 -13 -40 -25 -17 -18 -19 -38 -19 -180 0
-160 0 -161 25 -179 27 -19 143 -35 183 -25 40 10 49 49 54 239 l5 177 -93 -1
c-52 -1 -104 -4 -115 -6z"/>
<path d="M15245 4763 c-39 -7 -64 -26 -75 -56 -5 -16 -10 -103 -10 -193 l0
-164 26 -17 c16 -10 53 -19 88 -21 50 -3 66 0 86 16 24 19 24 23 26 185 3 163
-6 234 -29 242 -20 6 -91 11 -112 8z"/>
<path d="M15180 3806 c-19 -6 -40 -22 -47 -36 -15 -29 -18 -306 -4 -328 14
-23 82 -39 172 -41 l89 -2 0 211 0 211 -88 -2 c-48 -1 -103 -7 -122 -13z"/>
<path d="M15255 2872 c-46 -4 -73 -22 -85 -55 -5 -16 -10 -103 -10 -193 l0
-164 27 -17 c18 -12 49 -19 94 -20 102 -3 103 0 105 204 2 146 -4 215 -20 231
-9 8 -79 17 -111 14z"/>
<path d="M15175 1843 c-11 -3 -28 -12 -39 -22 -17 -15 -18 -29 -13 -176 5
-173 13 -207 56 -225 54 -22 112 -17 149 15 36 30 42 56 57 247 8 102 -4 153
-38 162 -25 7 -143 6 -172 -1z"/>
</g>
</svg>
